<svg width="190" height="24" viewBox="0 0 190 24" fill="none" xmlns="http://www.w3.org/2000/svg">
<path d="M43.5937 13.556C43.5937 15.2264 43.0532 16.5011 41.9721 17.3802C40.9084 18.2418 39.5309 18.6725 37.8395 18.6725H31.9806C31.8934 18.6725 31.815 18.6462 31.7452 18.5934C31.6929 18.5231 31.6667 18.444 31.6667 18.356V0.527472C31.6667 0.43956 31.6929 0.36923 31.7452 0.316483C31.815 0.246153 31.8934 0.210988 31.9806 0.210988H37.4471C39.3129 0.210988 40.7602 0.632966 41.789 1.47692C42.8178 2.3033 43.3322 3.56923 43.3322 5.27472C43.3322 7.01538 42.6608 8.27253 41.3182 9.04615C41.231 9.0989 41.2223 9.15165 41.292 9.20439C42.8265 10.0835 43.5937 11.5341 43.5937 13.556ZM35.4855 3.4022C35.3983 3.4022 35.3547 3.44615 35.3547 3.53407V7.67472C35.3547 7.76264 35.3983 7.80659 35.4855 7.80659H37.4733C38.1708 7.80659 38.7201 7.61319 39.1211 7.22637C39.5222 6.83956 39.7227 6.3033 39.7227 5.61758C39.7227 4.91429 39.5222 4.36923 39.1211 3.98242C38.7375 3.5956 38.1882 3.4022 37.4733 3.4022H35.4855ZM37.6825 15.4549C38.38 15.4549 38.9206 15.2527 39.3042 14.8484C39.7052 14.4264 39.9058 13.8374 39.9058 13.0813C39.9058 12.3253 39.7052 11.7363 39.3042 11.3143C38.9206 10.8747 38.38 10.6549 37.6825 10.6549H35.4855C35.3983 10.6549 35.3547 10.6989 35.3547 10.7868V15.3231C35.3547 15.411 35.3983 15.4549 35.4855 15.4549H37.6825Z" fill="#31383E"/>
<path d="M57.9957 23.9209C57.9434 23.9209 57.8998 23.8857 57.8649 23.8154C57.83 23.7626 57.8126 23.6923 57.8126 23.6044V21.178C57.8126 20.967 57.9085 20.8615 58.1003 20.8615C59.0942 20.844 59.8004 20.6945 60.2189 20.4132C60.6548 20.1495 60.9338 19.5956 61.0559 18.7516L61.0297 18.5934L57.2633 5.45934L57.2372 5.35385C57.2372 5.17802 57.3331 5.09011 57.5249 5.09011H60.8205C61.0123 5.09011 61.1256 5.18681 61.1605 5.38022L62.8606 13.5824C62.8781 13.6527 62.9042 13.6879 62.9391 13.6879C62.974 13.6879 63.0001 13.6527 63.0175 13.5824L64.7177 5.38022C64.7525 5.18681 64.8659 5.09011 65.0577 5.09011L68.301 5.11648C68.4056 5.11648 68.4754 5.15165 68.5102 5.22198C68.5625 5.27472 68.58 5.35384 68.5625 5.45934L64.5607 19.1736C64.1771 20.4571 63.7673 21.4154 63.3314 22.0484C62.9129 22.6989 62.3113 23.1736 61.5267 23.4725C60.742 23.7714 59.6173 23.9209 58.1526 23.9209H57.9957Z" fill="#31383E"/>
<path d="M74.9047 18.8835C73.3876 18.8835 72.1409 18.5055 71.1644 17.7495C70.2054 16.9758 69.63 15.9209 69.4381 14.5846C69.2986 13.7758 69.2289 12.8703 69.2289 11.8681C69.2289 10.8484 69.2986 9.94286 69.4381 9.15165C69.63 7.85055 70.2054 6.82198 71.1644 6.06593C72.1409 5.29231 73.3876 4.90549 74.9047 4.90549C76.4043 4.90549 77.6249 5.29231 78.5665 6.06593C79.5255 6.82198 80.1096 7.85055 80.3189 9.15165C80.4584 9.94286 80.5281 10.8484 80.5281 11.8681C80.5281 12.8527 80.4584 13.7495 80.3189 14.5582C80.1271 15.9121 79.5517 16.9758 78.5926 17.7495C77.651 18.5055 76.4217 18.8835 74.9047 18.8835ZM74.9047 15.6923C75.358 15.6923 75.7417 15.5429 76.0555 15.244C76.3868 14.9451 76.6048 14.5407 76.7094 14.0308C76.7966 13.2923 76.8402 12.5714 76.8402 11.8681C76.8402 11.1473 76.7966 10.4352 76.7094 9.73187C76.6222 9.22198 76.413 8.82637 76.0817 8.54506C75.7678 8.24615 75.3668 8.0967 74.8785 8.0967C74.4077 8.0967 74.0067 8.24615 73.6754 8.54506C73.3615 8.82637 73.161 9.22198 73.0738 9.73187C72.9866 10.2593 72.943 10.9714 72.943 11.8681C72.943 12.7473 72.9779 13.4681 73.0476 14.0308C73.1522 14.5407 73.3702 14.9451 73.7015 15.244C74.0328 15.5429 74.4339 15.6923 74.9047 15.6923Z" fill="#31383E"/>
<path d="M89.2884 4.90549C90.5613 4.90549 91.5553 5.31868 92.2702 6.14505C93.0025 6.95384 93.3687 8.08791 93.3687 9.54725V18.356C93.3687 18.444 93.3338 18.5231 93.2641 18.5934C93.2118 18.6462 93.142 18.6725 93.0548 18.6725H89.9946C89.9075 18.6725 89.829 18.6462 89.7592 18.5934C89.7069 18.5231 89.6808 18.444 89.6808 18.356V10.0747C89.6808 9.45934 89.5326 8.97582 89.2361 8.62418C88.9397 8.27253 88.5386 8.0967 88.033 8.0967C87.5098 8.0967 87.0914 8.28132 86.7775 8.65055C86.4811 9.0022 86.3329 9.48571 86.3329 10.1011V18.356C86.3329 18.444 86.298 18.5231 86.2282 18.5934C86.1759 18.6462 86.1062 18.6725 86.019 18.6725H82.9588C82.8716 18.6725 82.7931 18.6462 82.7234 18.5934C82.6711 18.5231 82.6449 18.444 82.6449 18.356V5.43297C82.6449 5.34505 82.6711 5.27472 82.7234 5.22198C82.7931 5.15165 82.8716 5.11648 82.9588 5.11648H86.019C86.1062 5.11648 86.1759 5.15165 86.2282 5.22198C86.298 5.27472 86.3329 5.34505 86.3329 5.43297V6.17143C86.3329 6.22417 86.3503 6.25934 86.3852 6.27692C86.42 6.27692 86.4636 6.24176 86.5159 6.17143C87.1437 5.32747 88.0678 4.90549 89.2884 4.90549Z" fill="#31383E"/>
<path d="M102.787 0.527472C102.787 0.43956 102.813 0.36923 102.866 0.316483C102.935 0.246153 103.014 0.210988 103.101 0.210988H106.161C106.248 0.210988 106.318 0.246153 106.371 0.316483C106.44 0.36923 106.475 0.43956 106.475 0.527472V18.356C106.475 18.444 106.44 18.5231 106.371 18.5934C106.318 18.6462 106.248 18.6725 106.161 18.6725H103.101C103.014 18.6725 102.935 18.6462 102.866 18.5934C102.813 18.5231 102.787 18.444 102.787 18.356V17.7758C102.787 17.7231 102.77 17.6879 102.735 17.6703C102.7 17.6527 102.665 17.6703 102.63 17.7231C101.985 18.4967 101.061 18.8835 99.8578 18.8835C97.7304 18.8835 96.3616 17.4857 95.7513 14.6901C95.577 13.811 95.4898 12.8352 95.4898 11.7626C95.4898 10.8132 95.5682 9.89011 95.7252 8.99341C96.2657 6.26813 97.6607 4.90549 99.9101 4.90549C100.52 4.90549 101.043 4.99341 101.479 5.16923C101.915 5.32747 102.299 5.60879 102.63 6.01319C102.665 6.06593 102.7 6.08352 102.735 6.06593C102.77 6.04835 102.787 6.01319 102.787 5.96044V0.527472ZM102.578 14.1626C102.7 13.6527 102.761 12.8879 102.761 11.8681C102.761 10.9363 102.691 10.1626 102.552 9.54725C102.325 8.58022 101.811 8.0967 101.009 8.0967C100.608 8.0967 100.276 8.21978 100.015 8.46593C99.7531 8.71209 99.5613 9.06374 99.4393 9.52088C99.2823 10.0308 99.2039 10.8132 99.2039 11.8681C99.2039 12.8703 99.2649 13.6264 99.387 14.1363C99.6136 15.1736 100.154 15.6923 101.009 15.6923C101.793 15.6923 102.316 15.1824 102.578 14.1626Z" fill="#31383E"/>
<path d="M114.528 18.8835C113.325 18.8835 112.27 18.6725 111.363 18.2505C110.456 17.811 109.75 17.2044 109.245 16.4308C108.756 15.6396 108.512 14.7341 108.512 13.7143V13.0286C108.512 12.9407 108.538 12.8703 108.591 12.8176C108.66 12.7473 108.739 12.7121 108.826 12.7121H111.834C111.921 12.7121 111.991 12.7473 112.043 12.8176C112.113 12.8703 112.148 12.9407 112.148 13.0286V13.5297C112.148 14.1451 112.375 14.6637 112.828 15.0857C113.281 15.4901 113.892 15.6923 114.659 15.6923C115.339 15.6923 115.853 15.5165 116.202 15.1648C116.568 14.8132 116.751 14.3648 116.751 13.8198C116.751 13.4154 116.638 13.0725 116.411 12.7912C116.185 12.4923 115.862 12.2198 115.443 11.9736C115.042 11.7099 114.415 11.3582 113.56 10.9187C112.514 10.3912 111.66 9.8989 110.997 9.44176C110.334 8.98461 109.768 8.3956 109.297 7.67472C108.826 6.95384 108.591 6.08352 108.591 5.06374C108.591 4.04396 108.826 3.15604 109.297 2.4C109.785 1.62637 110.465 1.03736 111.337 0.632967C112.209 0.210989 113.203 0 114.319 0C115.487 0 116.525 0.228571 117.431 0.685713C118.338 1.12527 119.044 1.74945 119.55 2.55824C120.056 3.36703 120.308 4.2989 120.308 5.35385V5.88132C120.308 5.96923 120.274 6.04835 120.204 6.11868C120.151 6.17143 120.082 6.1978 119.995 6.1978H116.987C116.899 6.1978 116.821 6.17143 116.751 6.11868C116.699 6.04835 116.673 5.96923 116.673 5.88132V5.40659C116.673 4.77363 116.455 4.24615 116.019 3.82418C115.583 3.4022 114.99 3.19121 114.24 3.19121C113.613 3.19121 113.116 3.35824 112.749 3.69231C112.401 4.00879 112.226 4.45714 112.226 5.03736C112.226 5.44176 112.331 5.79341 112.54 6.09231C112.749 6.39121 113.072 6.68132 113.508 6.96264C113.944 7.22637 114.606 7.57802 115.496 8.01758L116.045 8.33407C117.056 8.8967 117.841 9.38901 118.399 9.81099C118.974 10.2154 119.454 10.7341 119.838 11.367C120.221 12 120.413 12.7648 120.413 13.6615C120.413 15.2615 119.872 16.5363 118.791 17.4857C117.728 18.4176 116.307 18.8835 114.528 18.8835Z" fill="#31383E"/>
<path d="M129.074 7.5956C129.074 7.68351 129.039 7.76264 128.969 7.83297C128.917 7.88571 128.847 7.91209 128.76 7.91209H126.746C126.659 7.91209 126.615 7.95604 126.615 8.04395V13.978C126.615 14.5231 126.72 14.9187 126.929 15.1648C127.155 15.3934 127.495 15.4989 127.949 15.4813H128.472C128.559 15.4813 128.629 15.5165 128.681 15.5868C128.751 15.6396 128.786 15.7099 128.786 15.7978V18.356C128.786 18.567 128.681 18.6725 128.472 18.6725C128.176 18.6901 127.74 18.6989 127.164 18.6989C125.787 18.6989 124.758 18.4703 124.078 18.0132C123.415 17.556 123.084 16.6945 123.084 15.4286V8.04395C123.084 7.95604 123.211 7.82967 123.075 7.28022L123.385 7.91209C123.298 7.91209 123.281 8.15714 123.211 8.10439C123.075 8.92857 123.084 7.68351 123.084 7.5956L123.071 5.43297C123.071 5.34505 123.075 5.21978 123.075 5.21978C123.075 5.21978 123.893 2.88462 123.385 5.11648L123.075 5.21927C123.075 4.94506 123.084 5.07253 123.084 4.98461V1.95165C123.084 1.86374 123.11 1.79341 123.162 1.74066C123.232 1.67033 123.311 1.63516 123.398 1.63516H126.301C126.388 1.63516 126.458 1.67033 126.51 1.74066C126.58 1.79341 126.615 1.86374 126.615 1.95165V4.98461C126.615 5.07253 126.659 5.11648 126.746 5.11648H128.76C128.847 5.11648 128.917 5.15165 128.969 5.22198C129.039 5.27472 129.074 5.34505 129.074 5.43297V7.5956Z" fill="#31383E"/>
<path d="M136.488 18.8835C134.971 18.8835 133.724 18.5055 132.748 17.7495C131.789 16.9758 131.213 15.9209 131.021 14.5846C130.882 13.7758 130.812 12.8703 130.812 11.8681C130.812 10.8484 130.882 9.94286 131.021 9.15165C131.213 7.85055 131.789 6.82198 132.748 6.06593C133.724 5.29231 134.971 4.90549 136.488 4.90549C137.988 4.90549 139.208 5.29231 140.15 6.06593C141.109 6.82198 141.693 7.85055 141.902 9.15165C142.042 9.94286 142.111 10.8484 142.111 11.8681C142.111 12.8527 142.042 13.7495 141.902 14.5582C141.71 15.9121 141.135 16.9758 140.176 17.7495C139.234 18.5055 138.005 18.8835 136.488 18.8835ZM136.488 15.6923C136.941 15.6923 137.325 15.5429 137.639 15.244C137.97 14.9451 138.188 14.5407 138.293 14.0308C138.38 13.2923 138.423 12.5714 138.423 11.8681C138.423 11.1473 138.38 10.4352 138.293 9.73187C138.205 9.22198 137.996 8.82637 137.665 8.54506C137.351 8.24615 136.95 8.0967 136.462 8.0967C135.991 8.0967 135.59 8.24615 135.259 8.54506C134.945 8.82637 134.744 9.22198 134.657 9.73187C134.57 10.2593 134.526 10.9714 134.526 11.8681C134.526 12.7473 134.561 13.4681 134.631 14.0308C134.735 14.5407 134.953 14.9451 135.285 15.244C135.616 15.5429 136.017 15.6923 136.488 15.6923Z" fill="#31383E"/>
<path d="M150.61 4.93187C151.081 4.93187 151.508 5.03736 151.892 5.24835C152.031 5.33626 152.084 5.47692 152.049 5.67033L151.526 8.7033C151.508 8.91428 151.386 8.97582 151.159 8.88791C150.88 8.81758 150.628 8.78242 150.401 8.78242C150.192 8.78242 149.965 8.80879 149.721 8.86154C149.215 8.93187 148.788 9.17802 148.439 9.6C148.09 10.022 147.916 10.5319 147.916 11.1297V18.356C147.916 18.444 147.881 18.5231 147.811 18.5934C147.759 18.6462 147.689 18.6725 147.602 18.6725H144.542C144.455 18.6725 144.376 18.6462 144.307 18.5934C144.254 18.5231 144.228 18.444 144.228 18.356V5.43297C144.228 5.34505 144.254 5.27472 144.307 5.22198C144.376 5.15165 144.455 5.11648 144.542 5.11648H147.602C147.689 5.11648 147.759 5.15165 147.811 5.22198C147.881 5.27472 147.916 5.34505 147.916 5.43297V6.48791C147.916 6.55824 147.925 6.6022 147.942 6.61978C147.977 6.61978 148.012 6.59341 148.047 6.54066C148.657 5.46813 149.512 4.93187 150.61 4.93187Z" fill="#31383E"/>
<path d="M158.473 4.90549C159.52 4.90549 160.452 5.0989 161.272 5.48571C162.092 5.85494 162.728 6.38242 163.181 7.06813C163.652 7.73626 163.888 8.5011 163.888 9.36264V18.356C163.888 18.444 163.853 18.5231 163.783 18.5934C163.731 18.6462 163.661 18.6725 163.574 18.6725H160.514C160.426 18.6725 160.348 18.6462 160.278 18.5934C160.226 18.5231 160.2 18.444 160.2 18.356V17.6176C160.2 17.5648 160.182 17.5297 160.147 17.5121C160.112 17.4945 160.078 17.5121 160.043 17.5648C159.38 18.444 158.351 18.8835 156.956 18.8835C155.771 18.8835 154.777 18.5758 153.975 17.9604C153.19 17.3451 152.798 16.3165 152.798 14.8747C152.798 12.0088 154.576 10.5758 158.133 10.5758H160.069C160.156 10.5758 160.2 10.5319 160.2 10.444V9.83736C160.2 9.30989 160.043 8.88791 159.729 8.57143C159.432 8.25494 159.023 8.0967 158.5 8.0967C158.081 8.0967 157.732 8.19341 157.453 8.38681C157.174 8.58022 157 8.84396 156.93 9.17802C156.878 9.35384 156.756 9.44176 156.564 9.44176L153.399 9.25714C153.312 9.25714 153.234 9.23077 153.164 9.17802C153.111 9.12527 153.094 9.05494 153.111 8.96703C153.216 7.75385 153.757 6.77802 154.733 6.03956C155.727 5.28351 156.974 4.90549 158.473 4.90549ZM158.055 16.0615C158.648 16.0615 159.153 15.8945 159.572 15.5604C159.99 15.2264 160.2 14.7868 160.2 14.2418V13.1341C160.2 13.0462 160.156 13.0022 160.069 13.0022H158.604C157.959 13.0022 157.453 13.1429 157.087 13.4242C156.721 13.7055 156.538 14.1099 156.538 14.6374C156.538 15.0945 156.677 15.4462 156.956 15.6923C157.235 15.9385 157.602 16.0615 158.055 16.0615Z" fill="#31383E"/>
<path d="M173.181 5.43297C173.181 5.34505 173.207 5.27472 173.259 5.22198C173.329 5.15165 173.407 5.11648 173.495 5.11648H176.555C176.642 5.11648 176.712 5.15165 176.764 5.22198C176.834 5.27472 176.869 5.34505 176.869 5.43297V17.7495C176.869 19.8593 176.285 21.4242 175.116 22.444C173.965 23.4813 172.309 24 170.147 24C169.676 24 169.179 23.9736 168.656 23.9209C168.447 23.9033 168.342 23.789 168.342 23.578L168.42 20.9143C168.42 20.7209 168.534 20.6242 168.76 20.6242C169.022 20.6593 169.388 20.6769 169.859 20.6769C171.027 20.6769 171.873 20.422 172.396 19.9121C172.919 19.4198 173.181 18.6286 173.181 17.5385C173.181 17.4857 173.163 17.4505 173.128 17.433C173.094 17.4154 173.059 17.433 173.024 17.4857C172.379 18.2418 171.489 18.6198 170.356 18.6198C169.223 18.6198 168.264 18.2857 167.479 17.6176C166.694 16.9494 166.197 15.956 165.988 14.6374C165.866 14.1802 165.805 13.2484 165.805 11.8418C165.805 10.4352 165.883 9.45055 166.04 8.88791C166.232 7.63956 166.694 6.66374 167.427 5.96044C168.159 5.25714 169.109 4.90549 170.278 4.90549C171.428 4.90549 172.344 5.3011 173.024 6.09231C173.059 6.14505 173.094 6.16264 173.128 6.14505C173.163 6.12747 173.181 6.09231 173.181 6.03956V5.43297ZM173.076 14.0044C173.146 13.4418 173.181 12.7209 173.181 11.8418C173.181 10.9451 173.146 10.2154 173.076 9.65275C172.989 9.17802 172.797 8.8 172.501 8.51868C172.204 8.23736 171.829 8.0967 171.376 8.0967C170.94 8.0967 170.565 8.24615 170.251 8.54506C169.955 8.82637 169.763 9.1956 169.676 9.65275C169.571 10.2857 169.519 11.0154 169.519 11.8418C169.519 12.6154 169.563 13.3275 169.65 13.978C169.737 14.4527 169.929 14.8308 170.225 15.1121C170.539 15.3934 170.931 15.5341 171.402 15.5341C171.856 15.5341 172.23 15.3934 172.527 15.1121C172.823 14.8308 173.006 14.4615 173.076 14.0044Z" fill="#31383E"/>
<path d="M189.922 9.83736C189.974 10.4176 190 10.7846 190 11.4879L189.974 11.6923C189.974 11.9033 189.869 12.0088 189.66 12.0088L182.729 13.1077C182.642 13.1077 182.598 13.1516 182.598 13.2396C182.633 13.644 182.668 13.9429 182.703 14.1363C182.79 14.6286 182.999 15.0154 183.33 15.2967C183.679 15.578 184.106 15.7187 184.612 15.7187C185.466 15.7011 186.059 15.3055 186.391 14.5319C186.478 14.356 186.609 14.2857 186.783 14.3209L189.555 14.8747C189.765 14.9275 189.834 15.0593 189.765 15.2703C189.381 16.4308 188.745 17.3275 187.855 17.9604C186.983 18.5758 185.902 18.8835 184.612 18.8835C183.06 18.8835 181.822 18.5319 180.898 17.8286C179.991 17.1077 179.398 16.0791 179.119 14.7429C178.962 14.022 178.884 12.9231 178.884 11.4462C178.884 10.6022 178.936 9.89011 179.041 9.30989C179.233 7.97363 179.808 6.90989 180.767 6.11868C181.726 5.30989 182.938 4.90549 184.403 4.90549C185.99 4.90549 187.28 5.36264 188.274 6.27692C189.268 7.17363 189.817 8.36044 189.922 9.83736ZM184.429 8.0967C183.958 8.0967 183.566 8.23736 183.252 8.51868C182.956 8.8 182.764 9.18681 182.677 9.67912C182.624 9.9956 182.598 10.3297 182.598 10.6813C182.598 10.7692 182.642 10.8132 182.729 10.8132L186.129 10.2637C186.216 10.2637 186.26 10.2198 186.26 10.1319C186.26 9.78022 186.234 9.9956 186.181 9.67912C186.112 9.20439 185.92 8.82637 185.606 8.54506C185.292 8.24615 184.9 8.0967 184.429 8.0967Z" fill="#31383E"/>
<path d="M56.4189 9.83735C56.4712 10.4176 56.4974 10.7846 56.4974 11.4879L56.4712 11.6923C56.4712 11.9033 56.3666 12.0088 56.1573 12.0088L49.2261 13.1077C49.1389 13.1077 49.0953 13.1516 49.0953 13.2395C49.1302 13.6439 49.1651 13.9428 49.1999 14.1363C49.2871 14.6286 49.4964 15.0154 49.8277 15.2967C50.1764 15.578 50.6036 15.7187 51.1093 15.7187C51.9637 15.7011 52.5566 15.3055 52.8879 14.5319C52.9751 14.356 53.1059 14.2857 53.2802 14.3209L56.0527 14.8747C56.262 14.9275 56.3317 15.0593 56.262 15.2703C55.8784 16.4308 55.2419 17.3275 54.3526 17.9604C53.4808 18.5758 52.3997 18.8835 51.1093 18.8835C49.5574 18.8835 48.3194 18.5319 47.3952 17.8286C46.4885 17.1077 45.8956 16.0791 45.6166 14.7428C45.4597 14.022 45.3812 12.9231 45.3812 11.4461C45.3812 10.6022 45.4335 9.8901 45.5382 9.30988C45.73 7.97361 46.3054 6.90988 47.2644 6.11867C48.2235 5.30988 49.4354 4.90548 50.9001 4.90548C52.4868 4.90548 53.7772 5.36263 54.7711 6.27691C55.765 7.17361 56.3143 8.36043 56.4189 9.83735ZM50.9262 8.09669C50.4554 8.09669 50.0631 8.23735 49.7492 8.51867C49.4528 8.79999 49.261 9.1868 49.1738 9.67911C49.1215 9.99559 49.0953 10.3297 49.0953 10.6813C49.0953 10.7692 49.1389 10.8132 49.2261 10.8132L52.6263 10.2637C52.7135 10.2637 52.7571 10.2198 52.7571 10.1319C52.7571 9.78021 52.731 9.99559 52.6786 9.67911C52.6089 9.20438 52.4171 8.82636 52.1032 8.54504C51.7894 8.24614 51.397 8.09669 50.9262 8.09669Z" fill="#31383E"/>
<path fill-rule="evenodd" clip-rule="evenodd" d="M12.344 19.1857L14.6067 19.1981C14.6635 19.1993 14.7205 19.2 14.7777 19.2C14.8068 19.2 14.8359 19.1998 14.8649 19.1995L14.9581 19.2L14.9576 19.1979C18.9553 19.1036 22.1666 15.8783 22.1666 11.9134C22.1666 7.88906 18.8584 4.62673 14.7777 4.62673C14.6092 4.62673 14.4421 4.63229 14.2764 4.64323C13.2032 1.92574 10.5241 0 7.38877 0C3.69044 0 0.626727 2.67951 0.0849609 6.17732H10.8054C11.8067 6.17732 12.7682 6.56929 13.4784 7.26908C14.1888 7.96909 14.5895 8.91995 14.5903 9.91305C14.5907 10.4052 14.4927 10.8924 14.3022 11.3468C14.1116 11.8012 13.8323 12.2137 13.4805 12.561C13.3791 12.6611 13.2722 12.7552 13.1605 12.8429C13.2711 12.9298 13.3773 13.0232 13.4784 13.1228C14.1888 13.8228 14.5895 14.7736 14.5903 15.7667C14.5907 16.2589 14.4927 16.7461 14.3022 17.2005C14.1116 17.6549 13.8323 18.0674 13.4805 18.4146C13.1523 18.7386 12.7669 18.9998 12.344 19.1857Z" fill="#2B99FF"/>
<path fill-rule="evenodd" clip-rule="evenodd" d="M10.9412 7.84912H0V12.0844H10.9412C12.1184 12.0844 13.0727 11.1363 13.0727 9.96677C13.0727 8.79722 12.1184 7.84912 10.9412 7.84912ZM9.37817 10.4467H11.0833V11.2938H9.37817V10.4467Z" fill="#2DD482"/>
<path fill-rule="evenodd" clip-rule="evenodd" d="M10.9412 13.5532H0V17.7885H10.9412C12.1184 17.7885 13.0727 16.8404 13.0727 15.6709C13.0727 14.5013 12.1184 13.5532 10.9412 13.5532ZM9.37817 16.0939H11.0833V16.941H9.37817V16.0939Z" fill="#2DD482"/>
</svg>
